<?xml version="1.0" encoding="us-ascii" standalone="no"?><svg xmlns="http://www.w3.org/2000/svg" xmlns:xlink="http://www.w3.org/1999/xlink" contentStyleType="text/css" height="345px" preserveAspectRatio="none" style="width:435px;height:345px;background:#FFFFFF;" version="1.1" viewBox="0 0 435 345" width="435px" zoomAndPan="magnify"><defs/><g><rect fill="#FFFFFF" height="233.9421" style="stroke:#181818;stroke-width:1.0;" width="10" x="68.5" y="55.0679"/><rect fill="#FFFFFF" height="115.118" style="stroke:#181818;stroke-width:1.0;" width="10" x="258.5" y="122.186"/><line style="stroke:#181818;stroke-width:0.5;stroke-dasharray:5.0,5.0;" x1="73" x2="73" y1="39.0679" y2="307.01"/><line style="stroke:#181818;stroke-width:0.5;stroke-dasharray:5.0,5.0;" x1="263" x2="263" y1="39.0679" y2="307.01"/><line style="stroke:#181818;stroke-width:0.5;stroke-dasharray:5.0,5.0;" x1="336" x2="336" y1="39.0679" y2="307.01"/><line style="stroke:#181818;stroke-width:0.5;stroke-dasharray:5.0,5.0;" x1="409" x2="409" y1="39.0679" y2="307.01"/><rect fill="#E2E2F0" height="33.0679" rx="2.5" ry="2.5" style="stroke:#181818;stroke-width:0.5;" width="87" x="30" y="5"/><text fill="#000000" font-family="sans-serif" font-size="14" lengthAdjust="spacing" textLength="73" x="37" y="26.9659">containerd</text><rect fill="#E2E2F0" height="33.0679" rx="2.5" ry="2.5" style="stroke:#181818;stroke-width:0.5;" width="87" x="30" y="306.01"/><text fill="#000000" font-family="sans-serif" font-size="14" lengthAdjust="spacing" textLength="73" x="37" y="327.976">containerd</text><rect fill="#E2E2F0" height="33.0679" rx="2.5" ry="2.5" style="stroke:#181818;stroke-width:0.5;" width="39" x="244" y="5"/><text fill="#000000" font-family="sans-serif" font-size="14" lengthAdjust="spacing" textLength="25" x="251" y="26.9659">NRI</text><rect fill="#E2E2F0" height="33.0679" rx="2.5" ry="2.5" style="stroke:#181818;stroke-width:0.5;" width="39" x="244" y="306.01"/><text fill="#000000" font-family="sans-serif" font-size="14" lengthAdjust="spacing" textLength="25" x="251" y="327.976">NRI</text><rect fill="#E2E2F0" height="33.0679" rx="2.5" ry="2.5" style="stroke:#181818;stroke-width:0.5;" width="87" x="293" y="5"/><text fill="#000000" font-family="sans-serif" font-size="14" lengthAdjust="spacing" textLength="73" x="300" y="26.9659">NRI plugin</text><rect fill="#E2E2F0" height="33.0679" rx="2.5" ry="2.5" style="stroke:#181818;stroke-width:0.5;" width="87" x="293" y="306.01"/><text fill="#000000" font-family="sans-serif" font-size="14" lengthAdjust="spacing" textLength="73" x="300" y="327.976">NRI plugin</text><rect fill="#E2E2F0" height="33.0679" rx="2.5" ry="2.5" style="stroke:#181818;stroke-width:0.5;" width="39" x="390" y="5"/><text fill="#000000" font-family="sans-serif" font-size="14" lengthAdjust="spacing" textLength="25" x="397" y="26.9659">CNI</text><rect fill="#E2E2F0" height="33.0679" rx="2.5" ry="2.5" style="stroke:#181818;stroke-width:0.5;" width="39" x="390" y="306.01"/><text fill="#000000" font-family="sans-serif" font-size="14" lengthAdjust="spacing" textLength="25" x="397" y="327.976">CNI</text><rect fill="#FFFFFF" height="233.9421" style="stroke:#181818;stroke-width:1.0;" width="10" x="68.5" y="55.0679"/><rect fill="#FFFFFF" height="115.118" style="stroke:#181818;stroke-width:1.0;" width="10" x="258.5" y="122.186"/><polygon fill="#181818" points="56.5,51.0679,66.5,55.0679,56.5,59.0679,60.5,55.0679" style="stroke:#181818;stroke-width:1.0;"/><line style="stroke:#181818;stroke-width:1.0;" x1="54.5" x2="62.5" y1="55.0679" y2="55.0679"/><polygon fill="#181818" points="246.5,118.186,256.5,122.186,246.5,126.186,250.5,122.186" style="stroke:#181818;stroke-width:1.0;"/><line style="stroke:#181818;stroke-width:1.0;" x1="78.5" x2="252.5" y1="122.186" y2="122.186"/><text fill="#000000" font-family="sans-serif" font-size="13" lengthAdjust="spacing" textLength="147" x="85.5" y="80.9649">NetworkDeletedRequest</text><text fill="#000000" font-family="sans-serif" font-size="13" lengthAdjust="spacing" textLength="118" x="85.5" y="98.6709">{   PodSandbox pod</text><text fill="#000000" font-family="sans-serif" font-size="13" lengthAdjust="spacing" textLength="5" x="97.5" y="116.377">}</text><polygon fill="#181818" points="324.5,132.186,334.5,136.186,324.5,140.186,328.5,136.186" style="stroke:#181818;stroke-width:1.0;"/><line style="stroke:#181818;stroke-width:1.0;" x1="268.5" x2="330.5" y1="136.186" y2="136.186"/><path d="M292,149.186 L292,194.186 L381,194.186 L381,159.186 L371,149.186 L292,149.186 " fill="#FEFFDD" style="stroke:#181818;stroke-width:0.5;"/><path d="M371,149.186 L371,159.186 L381,159.186 L371,149.186 " fill="#FEFFDD" style="stroke:#181818;stroke-width:0.5;"/><text fill="#000000" font-family="sans-serif" font-size="13" lengthAdjust="spacing" textLength="68" x="298" y="168.083">update NRI</text><text fill="#000000" font-family="sans-serif" font-size="13" lengthAdjust="spacing" textLength="64" x="298" y="185.789">plugin info</text><polygon fill="#181818" points="279.5,201.598,269.5,205.598,279.5,209.598,275.5,205.598" style="stroke:#181818;stroke-width:1.0;"/><line style="stroke:#181818;stroke-width:1.0;" x1="273.5" x2="335.5" y1="205.598" y2="205.598"/><polygon fill="#181818" points="89.5,233.304,79.5,237.304,89.5,241.304,85.5,237.304" style="stroke:#181818;stroke-width:1.0;"/><line style="stroke:#181818;stroke-width:1.0;" x1="83.5" x2="262.5" y1="237.304" y2="237.304"/><text fill="#000000" font-family="sans-serif" font-size="13" lengthAdjust="spacing" textLength="156" x="95.5" y="231.495">NetworkDeletedResponse</text><path d="M5,250.304 L5,277.304 L143,277.304 L143,260.304 L133,250.304 L5,250.304 " fill="#FEFFDD" style="stroke:#181818;stroke-width:0.5;"/><path d="M133,250.304 L133,260.304 L143,260.304 L133,250.304 " fill="#FEFFDD" style="stroke:#181818;stroke-width:0.5;"/><text fill="#000000" font-family="sans-serif" font-size="13" lengthAdjust="spacing" textLength="117" x="11" y="269.201">delete pod network</text><polygon fill="#181818" points="60.5,285.01,50.5,289.01,60.5,293.01,56.5,289.01" style="stroke:#181818;stroke-width:1.0;"/><line style="stroke:#181818;stroke-width:1.0;" x1="54.5" x2="72.5" y1="289.01" y2="289.01"/><!--SRC=[PP313e8m38RlUuh6Eoz0Z1pqmeKOl7APh9f5qaueQ69yTuTWjiNRzhNz-srEzs9RwpG9j4oYBM5lb8jmLPV9VUC1k6wyMjeaXNrLAbLakpX8js8dBHYpS0JVxDDog50UtDyEsA6WgV4-uY0DlG3WoEQaoPpv2OvDGnx1E-JEThEGJqh4Y7sH9-mJdCFep3hMq0B1qeLLtBLg_NA3xx_eu9W6L0OJeR0ydZNVeVaLG4kCAhPP_3DHJA0V]--></g></svg>